<svg xmlns="http://www.w3.org/2000/svg" viewBox="0 0 800 1000" width="800" height="1000"><defs>
<linearGradient id="bg" x1="0" y1="0" x2="0" y2="1"><stop offset="0" stop-color="#0a1230"/><stop offset="1" stop-color="#27397a"/></linearGradient>
<radialGradient id="gl" cx=".5" cy=".4" r=".6"><stop offset="0" stop-color="#f3d27a" stop-opacity=".9"/><stop offset="1" stop-color="#f3d27a" stop-opacity="0"/></radialGradient>
<radialGradient id="vg" cx=".5" cy=".45" r=".8"><stop offset=".62" stop-color="#000" stop-opacity="0"/><stop offset="1" stop-color="#000" stop-opacity=".26"/></radialGradient>
<linearGradient id="gd" x1="0" y1="0" x2="0" y2="1"><stop offset="0" stop-color="#35467a"/><stop offset="1" stop-color="#222e55"/></linearGradient>
<linearGradient id="br" x1="0" y1="0" x2="0" y2="1"><stop offset="0" stop-color="#fbf6e8"/><stop offset="1" stop-color="#e2d7bd"/></linearGradient>
</defs><rect width="800" height="1000" fill="url(#bg)"/><rect width="800" height="1000" fill="url(#gl)"/><circle cx="783" cy="277" r="31" fill="#f3d27a" opacity="0.18"/><circle cx="54" cy="768" r="39" fill="#f3d27a" opacity="0.16"/><circle cx="646" cy="110" r="37" fill="#f3d27a" opacity="0.12"/><circle cx="415" cy="307" r="25" fill="#f3d27a" opacity="0.09"/><circle cx="210" cy="670" r="41" fill="#f3d27a" opacity="0.17"/><circle cx="318" cy="387" r="19" fill="#f3d27a" opacity="0.12"/><circle cx="640" cy="41" r="25" fill="#f3d27a" opacity="0.07"/><circle cx="603" cy="453" r="47" fill="#f3d27a" opacity="0.16"/><circle cx="405" cy="456" r="24" fill="#f3d27a" opacity="0.14"/><circle cx="391" cy="12" r="20" fill="#f3d27a" opacity="0.07"/><circle cx="166" cy="650" r="43" fill="#f3d27a" opacity="0.10"/><circle cx="640" cy="51" r="41" fill="#f3d27a" opacity="0.14"/><circle cx="201" cy="753" r="35" fill="#f3d27a" opacity="0.18"/><circle cx="233" cy="196" r="17" fill="#f3d27a" opacity="0.09"/><circle cx="756" cy="506" r="18" fill="#f3d27a" opacity="0.07"/><circle cx="604" cy="397" r="18" fill="#f3d27a" opacity="0.19"/><path d="M120 900V520A560 560 0 0 1 400 35.04000000000002A560 560 0 0 1 680 520V900Z" fill="#101c46" stroke="#e0b85c" stroke-width="6"/><path d="M160 900V540A480 480 0 0 1 400 124.32A480 480 0 0 1 640 540V900Z" fill="none" stroke="#e0b85c" stroke-width="2"/><circle cx="400" cy="250" r="130" fill="#1a1405"/><path d="M400 250L520.0 250.0A120 120 0 0 1 503.9 310.0Z" fill="#1d3a8a" stroke="#e0b85c" stroke-width="3" opacity=".92"/><path d="M400 250L503.9 310.0A120 120 0 0 1 460.0 353.9Z" fill="#9a1f33" stroke="#e0b85c" stroke-width="3" opacity=".92"/><path d="M400 250L460.0 353.9A120 120 0 0 1 400.0 370.0Z" fill="#e0b85c" stroke="#e0b85c" stroke-width="3" opacity=".92"/><path d="M400 250L400.0 370.0A120 120 0 0 1 340.0 353.9Z" fill="#2c7a52" stroke="#e0b85c" stroke-width="3" opacity=".92"/><path d="M400 250L340.0 353.9A120 120 0 0 1 296.1 310.0Z" fill="#5a2a8a" stroke="#e0b85c" stroke-width="3" opacity=".92"/><path d="M400 250L296.1 310.0A120 120 0 0 1 280.0 250.0Z" fill="#c9602a" stroke="#e0b85c" stroke-width="3" opacity=".92"/><path d="M400 250L280.0 250.0A120 120 0 0 1 296.1 190.0Z" fill="#1d3a8a" stroke="#e0b85c" stroke-width="3" opacity=".92"/><path d="M400 250L296.1 190.0A120 120 0 0 1 340.0 146.1Z" fill="#9a1f33" stroke="#e0b85c" stroke-width="3" opacity=".92"/><path d="M400 250L340.0 146.1A120 120 0 0 1 400.0 130.0Z" fill="#e0b85c" stroke="#e0b85c" stroke-width="3" opacity=".92"/><path d="M400 250L400.0 130.0A120 120 0 0 1 460.0 146.1Z" fill="#2c7a52" stroke="#e0b85c" stroke-width="3" opacity=".92"/><path d="M400 250L460.0 146.1A120 120 0 0 1 503.9 190.0Z" fill="#5a2a8a" stroke="#e0b85c" stroke-width="3" opacity=".92"/><path d="M400 250L503.9 190.0A120 120 0 0 1 520.0 250.0Z" fill="#c9602a" stroke="#e0b85c" stroke-width="3" opacity=".92"/><circle cx="400" cy="250" r="74.4" fill="none" stroke="#e0b85c" stroke-width="3"/><circle cx="400" cy="250" r="26.4" fill="#fff1b8"/><circle cx="492.7" cy="274.8" r="8.4" fill="#fff1b8"/><circle cx="467.9" cy="317.9" r="8.4" fill="#fff1b8"/><circle cx="424.8" cy="342.7" r="8.4" fill="#fff1b8"/><circle cx="375.2" cy="342.7" r="8.4" fill="#fff1b8"/><circle cx="332.1" cy="317.9" r="8.4" fill="#fff1b8"/><circle cx="307.3" cy="274.8" r="8.4" fill="#fff1b8"/><circle cx="307.3" cy="225.2" r="8.4" fill="#fff1b8"/><circle cx="332.1" cy="182.1" r="8.4" fill="#fff1b8"/><circle cx="375.2" cy="157.3" r="8.4" fill="#fff1b8"/><circle cx="424.8" cy="157.3" r="8.4" fill="#fff1b8"/><circle cx="467.9" cy="182.1" r="8.4" fill="#fff1b8"/><circle cx="492.7" cy="225.2" r="8.4" fill="#fff1b8"/><path d="M400 290L973 692L953 720Z" fill="#ffe9a8" opacity="0.07"/><path d="M400 290L818 851L789 872Z" fill="#ffe9a8" opacity="0.07"/><path d="M400 290L620 954L587 965Z" fill="#ffe9a8" opacity="0.07"/><path d="M400 290L400 990L365 989Z" fill="#ffe9a8" opacity="0.07"/><path d="M400 290L180 954L147 943Z" fill="#ffe9a8" opacity="0.07"/><path d="M400 290L-18 851L-46 830Z" fill="#ffe9a8" opacity="0.07"/><path d="M400 290L-173 692L-193 662Z" fill="#ffe9a8" opacity="0.07"/><rect y="880" width="800" height="120" fill="#0a0f20"/><g><rect x="81" y="835" width="18" height="70" rx="3" fill="#f6ecd2"/><path d="M90 801c-10 12-8 22 0 28 8-6 10-16 0-28z" fill="#ffc94d"/><circle cx="90" cy="821" r="26" fill="#ffd36a" opacity=".25"/></g><g><rect x="181" y="817" width="18" height="88" rx="3" fill="#f6ecd2"/><path d="M190 783c-10 12-8 22 0 28 8-6 10-16 0-28z" fill="#ffc94d"/><circle cx="190" cy="803" r="26" fill="#ffd36a" opacity=".25"/></g><g><rect x="601" y="835" width="18" height="70" rx="3" fill="#f6ecd2"/><path d="M610 801c-10 12-8 22 0 28 8-6 10-16 0-28z" fill="#ffc94d"/><circle cx="610" cy="821" r="26" fill="#ffd36a" opacity=".25"/></g><g><rect x="701" y="817" width="18" height="88" rx="3" fill="#f6ecd2"/><path d="M710 783c-10 12-8 22 0 28 8-6 10-16 0-28z" fill="#ffc94d"/><circle cx="710" cy="803" r="26" fill="#ffd36a" opacity=".25"/></g><g transform="translate(150 380) scale(1.67)"><g>
  <ellipse cx="150" cy="522" rx="150" ry="14" fill="#000" opacity=".18"/>
  <rect x="62" y="296" width="30" height="224" fill="#222e55"/><rect x="98" y="296" width="30" height="224" fill="#222e55"/><path d="M58 112c14-8 22-10 37-10s23 2 37 10l8 150-6 38H56l-6-38z" fill="url(#gd)"/><path d="M80 104l15 40 15-40z" fill="#fbf6e8"/><path d="M95 144v6l-6 6 6 14 6-14-6-6z" fill="#222"/>
  <rect x="86" y="86" width="18" height="22" fill="#d9a07a"/><circle cx="95" cy="68" r="26" fill="#d9a07a"/><path d="M69 66c-4-26 14-40 28-40s32 14 26 40c-4-12-14-18-26-18s-24 6-28 18z" fill="#1c120d"/>
  <path d="M188 168c10-8 32-8 42 0l10 70c20 90 40 200 50 282H110c8-84 26-188 46-282z" fill="url(#br)"/><path d="M188 168c10 6 32 6 42 0l4 30c-14 10-36 10-50 0z" fill="#fbf6e8"/>
  <rect x="197" y="104" width="16" height="22" fill="#e8b995"/><circle cx="205" cy="88" r="24" fill="#e8b995"/>
  <path d="M180 86c-6-30 12-46 26-46s34 16 26 52c-2-14-8-24-26-24s-22 10-26 18z" fill="#3a2418"/><path d="M180 74c-4-26 10-46 28-46s34 22 30 50c-2 40 10 120 28 230l-16 60-50-40c-10-80 6-160-20-254z" fill="#fbf6e8" opacity=".55"/>
  
  <g fill="none" stroke="#3a2216" stroke-width="1.7" stroke-linecap="round"><path d="M86 66q3-3 6 0M99 66q3-3 6 0M89 78q6 5 12 0"/><path d="M196 86q3-3 6 0M208 86q3-3 6 0M199 97q6 5 12 0"/></g>
  <circle cx="84" cy="73" r="4" fill="#e58a7a" opacity=".35"/><circle cx="106" cy="73" r="4" fill="#e58a7a" opacity=".35"/><circle cx="194" cy="93" r="4" fill="#e58a7a" opacity=".35"/><circle cx="216" cy="93" r="4" fill="#e58a7a" opacity=".35"/>
  <circle cx="182" cy="100" r="3.4" fill="#e0b85c"/><circle cx="228" cy="100" r="3.4" fill="#e0b85c"/><path d="M193 118q12 14 24 0" stroke="#e0b85c" stroke-width="2.4" fill="none"/>
  
  
  <path d="M130 200c10 40 24 60 40 66" stroke="#d9a07a" stroke-width="12" fill="none" stroke-linecap="round"/>
  <path d="M192 196c-14 30-22 50-26 70" stroke="#e8b995" stroke-width="11" fill="none" stroke-linecap="round"/>
  <circle cx="168" cy="268" r="9" fill="#e8b995"/>
  <g transform="translate(150 262)"><circle cx="0" cy="0" r="12" fill="#ffffff"/><circle cx="-9" cy="8" r="9" fill="#fff3cc"/><circle cx="10" cy="9" r="9" fill="#ffffff"/><path d="M0 14v26" stroke="#3b6b4a" stroke-width="3"/></g>
  </g></g><rect width="800" height="1000" fill="url(#vg)"/></svg>