<svg xmlns="http://www.w3.org/2000/svg" viewBox="0 0 800 800" width="800" height="800"><defs>
<linearGradient id="bg" x1="0" y1="0" x2="0" y2="1"><stop offset="0" stop-color="#0a1230"/><stop offset="1" stop-color="#27397a"/></linearGradient>
<radialGradient id="gl" cx=".5" cy=".4" r=".6"><stop offset="0" stop-color="#f3d27a" stop-opacity=".9"/><stop offset="1" stop-color="#f3d27a" stop-opacity="0"/></radialGradient>
<radialGradient id="vg" cx=".5" cy=".45" r=".8"><stop offset=".62" stop-color="#000" stop-opacity="0"/><stop offset="1" stop-color="#000" stop-opacity=".26"/></radialGradient>
<linearGradient id="gd" x1="0" y1="0" x2="0" y2="1"><stop offset="0" stop-color="#35467a"/><stop offset="1" stop-color="#222e55"/></linearGradient>
<linearGradient id="br" x1="0" y1="0" x2="0" y2="1"><stop offset="0" stop-color="#fbf6e8"/><stop offset="1" stop-color="#e2d7bd"/></linearGradient>
</defs><rect width="800" height="800" fill="url(#bg)"/><rect width="800" height="800" fill="url(#gl)"/><circle cx="3" cy="105" r="27" fill="#f3d27a" opacity="0.17"/><circle cx="654" cy="195" r="46" fill="#f3d27a" opacity="0.09"/><circle cx="127" cy="472" r="48" fill="#f3d27a" opacity="0.11"/><circle cx="604" cy="169" r="26" fill="#f3d27a" opacity="0.11"/><circle cx="504" cy="345" r="48" fill="#f3d27a" opacity="0.12"/><circle cx="263" cy="614" r="19" fill="#f3d27a" opacity="0.07"/><circle cx="641" cy="138" r="27" fill="#f3d27a" opacity="0.19"/><circle cx="769" cy="330" r="36" fill="#f3d27a" opacity="0.18"/><circle cx="725" cy="306" r="23" fill="#f3d27a" opacity="0.21"/><circle cx="649" cy="438" r="19" fill="#f3d27a" opacity="0.06"/><circle cx="381" cy="575" r="36" fill="#f3d27a" opacity="0.06"/><circle cx="446" cy="615" r="46" fill="#f3d27a" opacity="0.14"/><circle cx="360" cy="217" r="26" fill="#f3d27a" opacity="0.13"/><circle cx="675" cy="228" r="34" fill="#f3d27a" opacity="0.18"/><circle cx="760" cy="46" r="38" fill="#f3d27a" opacity="0.14"/><circle cx="308" cy="541" r="36" fill="#f3d27a" opacity="0.20"/><path d="M400 380L1055 839L1032 871Z" fill="#ffe9a8" opacity="0.1"/><path d="M400 380L956 955L926 983Z" fill="#ffe9a8" opacity="0.1"/><path d="M400 380L836 1051L802 1072Z" fill="#ffe9a8" opacity="0.1"/><path d="M400 380L700 1122L662 1136Z" fill="#ffe9a8" opacity="0.1"/><path d="M400 380L553 1165L513 1172Z" fill="#ffe9a8" opacity="0.1"/><path d="M400 380L400 1180L360 1179Z" fill="#ffe9a8" opacity="0.1"/><path d="M400 380L247 1165L208 1157Z" fill="#ffe9a8" opacity="0.1"/><path d="M400 380L100 1122L64 1106Z" fill="#ffe9a8" opacity="0.1"/><path d="M400 380L-36 1051L-69 1028Z" fill="#ffe9a8" opacity="0.1"/><path d="M400 380L-156 955L-184 927Z" fill="#ffe9a8" opacity="0.1"/><path d="M400 380L-255 839L-277 806Z" fill="#ffe9a8" opacity="0.1"/><circle cx="400" cy="380" r="180" fill="#ffe9a8" opacity=".12"/><circle cx="400" cy="380" r="120" fill="none" stroke="#e0b85c" stroke-width="3"/><g fill="#e0b85c"><rect x="382" y="240" width="36" height="280"/><rect x="324.4" y="312.8" width="151.20000000000002" height="36"/></g><g><rect x="161" y="630" width="18" height="90" rx="3" fill="#f6ecd2"/><path d="M170 596c-10 12-8 22 0 28 8-6 10-16 0-28z" fill="#ffc94d"/><circle cx="170" cy="616" r="26" fill="#ffd36a" opacity=".25"/></g><g><rect x="251" y="650" width="18" height="70" rx="3" fill="#f6ecd2"/><path d="M260 616c-10 12-8 22 0 28 8-6 10-16 0-28z" fill="#ffc94d"/><circle cx="260" cy="636" r="26" fill="#ffd36a" opacity=".25"/></g><g><rect x="531" y="630" width="18" height="90" rx="3" fill="#f6ecd2"/><path d="M540 596c-10 12-8 22 0 28 8-6 10-16 0-28z" fill="#ffc94d"/><circle cx="540" cy="616" r="26" fill="#ffd36a" opacity=".25"/></g><g><rect x="621" y="650" width="18" height="70" rx="3" fill="#f6ecd2"/><path d="M630 616c-10 12-8 22 0 28 8-6 10-16 0-28z" fill="#ffc94d"/><circle cx="630" cy="636" r="26" fill="#ffd36a" opacity=".25"/></g><rect width="800" height="800" fill="url(#vg)"/></svg>