<svg xmlns="http://www.w3.org/2000/svg" viewBox="0 0 800 800" width="800" height="800"><defs>
<linearGradient id="bg" x1="0" y1="0" x2="0" y2="1"><stop offset="0" stop-color="#0a1230"/><stop offset="1" stop-color="#27397a"/></linearGradient>
<radialGradient id="gl" cx=".5" cy=".4" r=".6"><stop offset="0" stop-color="#f3d27a" stop-opacity=".9"/><stop offset="1" stop-color="#f3d27a" stop-opacity="0"/></radialGradient>
<radialGradient id="vg" cx=".5" cy=".45" r=".8"><stop offset=".62" stop-color="#000" stop-opacity="0"/><stop offset="1" stop-color="#000" stop-opacity=".26"/></radialGradient>
<linearGradient id="gd" x1="0" y1="0" x2="0" y2="1"><stop offset="0" stop-color="#35467a"/><stop offset="1" stop-color="#222e55"/></linearGradient>
<linearGradient id="br" x1="0" y1="0" x2="0" y2="1"><stop offset="0" stop-color="#fbf6e8"/><stop offset="1" stop-color="#e2d7bd"/></linearGradient>
</defs><rect width="800" height="800" fill="url(#bg)"/><rect width="800" height="800" fill="url(#gl)"/><circle cx="3" cy="105" r="27" fill="#f3d27a" opacity="0.17"/><circle cx="654" cy="195" r="46" fill="#f3d27a" opacity="0.09"/><circle cx="127" cy="472" r="48" fill="#f3d27a" opacity="0.11"/><circle cx="604" cy="169" r="26" fill="#f3d27a" opacity="0.11"/><circle cx="504" cy="345" r="48" fill="#f3d27a" opacity="0.12"/><circle cx="263" cy="614" r="19" fill="#f3d27a" opacity="0.07"/><circle cx="641" cy="138" r="27" fill="#f3d27a" opacity="0.19"/><circle cx="769" cy="330" r="36" fill="#f3d27a" opacity="0.18"/><circle cx="725" cy="306" r="23" fill="#f3d27a" opacity="0.21"/><circle cx="649" cy="438" r="19" fill="#f3d27a" opacity="0.06"/><circle cx="381" cy="575" r="36" fill="#f3d27a" opacity="0.06"/><circle cx="446" cy="615" r="46" fill="#f3d27a" opacity="0.14"/><circle cx="360" cy="217" r="26" fill="#f3d27a" opacity="0.13"/><circle cx="675" cy="228" r="34" fill="#f3d27a" opacity="0.18"/><circle cx="760" cy="46" r="38" fill="#f3d27a" opacity="0.14"/><circle cx="308" cy="541" r="36" fill="#f3d27a" opacity="0.20"/><path d="M60 560V300A180 180 0 0 1 150 144.12A180 180 0 0 1 240 300V560Z" fill="#101c46" stroke="#e0b85c" stroke-width="4"/><path d="M560 560V300A180 180 0 0 1 650 144.12A180 180 0 0 1 740 300V560Z" fill="#101c46" stroke="#e0b85c" stroke-width="4"/><circle cx="400" cy="150" r="100" fill="#1a1405"/><path d="M400 150L490.0 150.0A90 90 0 0 1 477.9 195.0Z" fill="#1d3a8a" stroke="#e0b85c" stroke-width="3" opacity=".92"/><path d="M400 150L477.9 195.0A90 90 0 0 1 445.0 227.9Z" fill="#9a1f33" stroke="#e0b85c" stroke-width="3" opacity=".92"/><path d="M400 150L445.0 227.9A90 90 0 0 1 400.0 240.0Z" fill="#e0b85c" stroke="#e0b85c" stroke-width="3" opacity=".92"/><path d="M400 150L400.0 240.0A90 90 0 0 1 355.0 227.9Z" fill="#2c7a52" stroke="#e0b85c" stroke-width="3" opacity=".92"/><path d="M400 150L355.0 227.9A90 90 0 0 1 322.1 195.0Z" fill="#5a2a8a" stroke="#e0b85c" stroke-width="3" opacity=".92"/><path d="M400 150L322.1 195.0A90 90 0 0 1 310.0 150.0Z" fill="#c9602a" stroke="#e0b85c" stroke-width="3" opacity=".92"/><path d="M400 150L310.0 150.0A90 90 0 0 1 322.1 105.0Z" fill="#1d3a8a" stroke="#e0b85c" stroke-width="3" opacity=".92"/><path d="M400 150L322.1 105.0A90 90 0 0 1 355.0 72.1Z" fill="#9a1f33" stroke="#e0b85c" stroke-width="3" opacity=".92"/><path d="M400 150L355.0 72.1A90 90 0 0 1 400.0 60.0Z" fill="#e0b85c" stroke="#e0b85c" stroke-width="3" opacity=".92"/><path d="M400 150L400.0 60.0A90 90 0 0 1 445.0 72.1Z" fill="#2c7a52" stroke="#e0b85c" stroke-width="3" opacity=".92"/><path d="M400 150L445.0 72.1A90 90 0 0 1 477.9 105.0Z" fill="#5a2a8a" stroke="#e0b85c" stroke-width="3" opacity=".92"/><path d="M400 150L477.9 105.0A90 90 0 0 1 490.0 150.0Z" fill="#c9602a" stroke="#e0b85c" stroke-width="3" opacity=".92"/><circle cx="400" cy="150" r="55.8" fill="none" stroke="#e0b85c" stroke-width="3"/><circle cx="400" cy="150" r="19.8" fill="#fff1b8"/><circle cx="469.5" cy="168.6" r="6.300000000000001" fill="#fff1b8"/><circle cx="450.9" cy="200.9" r="6.300000000000001" fill="#fff1b8"/><circle cx="418.6" cy="219.5" r="6.300000000000001" fill="#fff1b8"/><circle cx="381.4" cy="219.5" r="6.300000000000001" fill="#fff1b8"/><circle cx="349.1" cy="200.9" r="6.300000000000001" fill="#fff1b8"/><circle cx="330.5" cy="168.6" r="6.300000000000001" fill="#fff1b8"/><circle cx="330.5" cy="131.4" r="6.300000000000001" fill="#fff1b8"/><circle cx="349.1" cy="99.1" r="6.300000000000001" fill="#fff1b8"/><circle cx="381.4" cy="80.5" r="6.300000000000001" fill="#fff1b8"/><circle cx="418.6" cy="80.5" r="6.300000000000001" fill="#fff1b8"/><circle cx="450.9" cy="99.1" r="6.300000000000001" fill="#fff1b8"/><circle cx="469.5" cy="131.4" r="6.300000000000001" fill="#fff1b8"/><path d="M400 180L810 467L795 487Z" fill="#ffe9a8" opacity="0.08"/><path d="M400 180L699 581L678 595Z" fill="#ffe9a8" opacity="0.08"/><path d="M400 180L557 655L533 662Z" fill="#ffe9a8" opacity="0.08"/><path d="M400 180L400 680L375 679Z" fill="#ffe9a8" opacity="0.08"/><path d="M400 180L243 655L219 646Z" fill="#ffe9a8" opacity="0.08"/><path d="M400 180L101 581L82 566Z" fill="#ffe9a8" opacity="0.08"/><path d="M400 180L-10 467L-23 446Z" fill="#ffe9a8" opacity="0.08"/><rect y="560" width="800" height="240" fill="#0a0f20"/><g><rect x="291" y="550" width="18" height="50" rx="3" fill="#f6ecd2"/><path d="M300 516c-10 12-8 22 0 28 8-6 10-16 0-28z" fill="#ffc94d"/><circle cx="300" cy="536" r="26" fill="#ffd36a" opacity=".25"/></g><g><rect x="491" y="550" width="18" height="50" rx="3" fill="#f6ecd2"/><path d="M500 516c-10 12-8 22 0 28 8-6 10-16 0-28z" fill="#ffc94d"/><circle cx="500" cy="536" r="26" fill="#ffd36a" opacity=".25"/></g><g transform="translate(260 120) scale(1.2)"><g>
  <ellipse cx="150" cy="522" rx="150" ry="14" fill="#000" opacity=".18"/>
  <rect x="62" y="296" width="30" height="224" fill="#222e55"/><rect x="98" y="296" width="30" height="224" fill="#222e55"/><path d="M58 112c14-8 22-10 37-10s23 2 37 10l8 150-6 38H56l-6-38z" fill="url(#gd)"/><path d="M80 104l15 40 15-40z" fill="#fbf6e8"/><path d="M95 144v6l-6 6 6 14 6-14-6-6z" fill="#222"/>
  <rect x="86" y="86" width="18" height="22" fill="#d9a07a"/><circle cx="95" cy="68" r="26" fill="#d9a07a"/><path d="M69 66c-4-26 14-40 28-40s32 14 26 40c-4-12-14-18-26-18s-24 6-28 18z" fill="#1c120d"/>
  <path d="M188 168c10-8 32-8 42 0l10 70c20 90 40 200 50 282H110c8-84 26-188 46-282z" fill="url(#br)"/><path d="M188 168c10 6 32 6 42 0l4 30c-14 10-36 10-50 0z" fill="#fbf6e8"/>
  <rect x="197" y="104" width="16" height="22" fill="#e8b995"/><circle cx="205" cy="88" r="24" fill="#e8b995"/>
  <path d="M180 86c-6-30 12-46 26-46s34 16 26 52c-2-14-8-24-26-24s-22 10-26 18z" fill="#3a2418"/><path d="M180 74c-4-26 10-46 28-46s34 22 30 50c-2 40 10 120 28 230l-16 60-50-40c-10-80 6-160-20-254z" fill="#fbf6e8" opacity=".55"/>
  
  <g fill="none" stroke="#3a2216" stroke-width="1.7" stroke-linecap="round"><path d="M86 66q3-3 6 0M99 66q3-3 6 0M89 78q6 5 12 0"/><path d="M196 86q3-3 6 0M208 86q3-3 6 0M199 97q6 5 12 0"/></g>
  <circle cx="84" cy="73" r="4" fill="#e58a7a" opacity=".35"/><circle cx="106" cy="73" r="4" fill="#e58a7a" opacity=".35"/><circle cx="194" cy="93" r="4" fill="#e58a7a" opacity=".35"/><circle cx="216" cy="93" r="4" fill="#e58a7a" opacity=".35"/>
  <circle cx="182" cy="100" r="3.4" fill="#e0b85c"/><circle cx="228" cy="100" r="3.4" fill="#e0b85c"/><path d="M193 118q12 14 24 0" stroke="#e0b85c" stroke-width="2.4" fill="none"/>
  
  
  <path d="M130 200c10 40 24 60 40 66" stroke="#d9a07a" stroke-width="12" fill="none" stroke-linecap="round"/>
  <path d="M192 196c-14 30-22 50-26 70" stroke="#e8b995" stroke-width="11" fill="none" stroke-linecap="round"/>
  <circle cx="168" cy="268" r="9" fill="#e8b995"/>
  <g transform="translate(150 262)"><circle cx="0" cy="0" r="12" fill="#ffffff"/><circle cx="-9" cy="8" r="9" fill="#fff3cc"/><circle cx="10" cy="9" r="9" fill="#ffffff"/><path d="M0 14v26" stroke="#3b6b4a" stroke-width="3"/></g>
  </g></g><rect width="800" height="800" fill="url(#vg)"/></svg>