<svg xmlns="http://www.w3.org/2000/svg" viewBox="0 0 800 1000" width="800" height="1000"><defs>
<linearGradient id="bg" x1="0" y1="0" x2="0" y2="1"><stop offset="0" stop-color="#efede6"/><stop offset="1" stop-color="#d9d6cc"/></linearGradient>
<radialGradient id="gl" cx=".5" cy=".4" r=".6"><stop offset="0" stop-color="#ffffff" stop-opacity=".9"/><stop offset="1" stop-color="#ffffff" stop-opacity="0"/></radialGradient>
<radialGradient id="vg" cx=".5" cy=".45" r=".8"><stop offset=".62" stop-color="#000" stop-opacity="0"/><stop offset="1" stop-color="#000" stop-opacity=".26"/></radialGradient>
<linearGradient id="gd" x1="0" y1="0" x2="0" y2="1"><stop offset="0" stop-color="#252523"/><stop offset="1" stop-color="#161615"/></linearGradient>
<linearGradient id="br" x1="0" y1="0" x2="0" y2="1"><stop offset="0" stop-color="#fbfaf6"/><stop offset="1" stop-color="#e2dfd5"/></linearGradient>
</defs><rect width="800" height="1000" fill="url(#bg)"/><rect width="800" height="1000" fill="url(#gl)"/><circle cx="783" cy="277" r="31" fill="#ffffff" opacity="0.18"/><circle cx="54" cy="768" r="39" fill="#ffffff" opacity="0.16"/><circle cx="646" cy="110" r="37" fill="#ffffff" opacity="0.12"/><circle cx="415" cy="307" r="25" fill="#ffffff" opacity="0.09"/><circle cx="210" cy="670" r="41" fill="#ffffff" opacity="0.17"/><circle cx="318" cy="387" r="19" fill="#ffffff" opacity="0.12"/><circle cx="640" cy="41" r="25" fill="#ffffff" opacity="0.07"/><circle cx="603" cy="453" r="47" fill="#ffffff" opacity="0.16"/><circle cx="405" cy="456" r="24" fill="#ffffff" opacity="0.14"/><circle cx="391" cy="12" r="20" fill="#ffffff" opacity="0.07"/><circle cx="166" cy="650" r="43" fill="#ffffff" opacity="0.10"/><circle cx="640" cy="51" r="41" fill="#ffffff" opacity="0.14"/><circle cx="201" cy="753" r="35" fill="#ffffff" opacity="0.18"/><circle cx="233" cy="196" r="17" fill="#ffffff" opacity="0.09"/><circle cx="756" cy="506" r="18" fill="#ffffff" opacity="0.07"/><circle cx="604" cy="397" r="18" fill="#ffffff" opacity="0.19"/><path d="M150 900V400a250 250 0 0 1 500 0V900z" fill="#d9d6cc"/><rect y="880" width="800" height="120" fill="#cfccc1"/><g transform="translate(150 380) scale(1.67)"><g>
  <ellipse cx="150" cy="522" rx="150" ry="14" fill="#000" opacity=".18"/>
  <rect x="62" y="296" width="30" height="224" fill="#161615"/><rect x="98" y="296" width="30" height="224" fill="#161615"/><path d="M58 112c14-8 22-10 37-10s23 2 37 10l8 150-6 38H56l-6-38z" fill="url(#gd)"/><path d="M80 104l15 40 15-40z" fill="#fbfaf6"/><path d="M95 144v6l-6 6 6 14 6-14-6-6z" fill="#222"/>
  <rect x="86" y="86" width="18" height="22" fill="#c9a58b"/><circle cx="95" cy="68" r="26" fill="#c9a58b"/><path d="M69 66c-4-26 14-40 28-40s32 14 26 40c-4-12-14-18-26-18s-24 6-28 18z" fill="#1c1b19"/>
  <path d="M188 168c10-8 32-8 42 0l10 70c20 90 40 200 50 282H110c8-84 26-188 46-282z" fill="url(#br)"/><path d="M188 168c10 6 32 6 42 0l4 30c-14 10-36 10-50 0z" fill="#fbfaf6"/>
  <rect x="197" y="104" width="16" height="22" fill="#dcb9a0"/><circle cx="205" cy="88" r="24" fill="#dcb9a0"/>
  <path d="M180 86c-6-30 12-46 26-46s34 16 26 52c-2-14-8-24-26-24s-22 10-26 18z" fill="#2b2a27"/><path d="M180 74c-4-26 10-46 28-46s34 22 30 50c-2 40 10 120 28 230l-16 60-50-40c-10-80 6-160-20-254z" fill="#fbfaf6" opacity=".55"/>
  
  <g fill="none" stroke="#3a2216" stroke-width="1.7" stroke-linecap="round"><path d="M86 66q3-3 6 0M99 66q3-3 6 0M89 78q6 5 12 0"/><path d="M196 86q3-3 6 0M208 86q3-3 6 0M199 97q6 5 12 0"/></g>
  <circle cx="84" cy="73" r="4" fill="#e58a7a" opacity=".35"/><circle cx="106" cy="73" r="4" fill="#e58a7a" opacity=".35"/><circle cx="194" cy="93" r="4" fill="#e58a7a" opacity=".35"/><circle cx="216" cy="93" r="4" fill="#e58a7a" opacity=".35"/>
  <circle cx="182" cy="100" r="3.4" fill="#1d1d1b"/><circle cx="228" cy="100" r="3.4" fill="#1d1d1b"/><path d="M193 118q12 14 24 0" stroke="#1d1d1b" stroke-width="2.4" fill="none"/>
  
  
  <path d="M130 200c10 40 24 60 40 66" stroke="#c9a58b" stroke-width="12" fill="none" stroke-linecap="round"/>
  <path d="M192 196c-14 30-22 50-26 70" stroke="#dcb9a0" stroke-width="11" fill="none" stroke-linecap="round"/>
  <circle cx="168" cy="268" r="9" fill="#dcb9a0"/>
  <g transform="translate(150 262)"><circle cx="0" cy="0" r="12" fill="#bdb8aa"/><circle cx="-9" cy="8" r="9" fill="#e6e2d8"/><circle cx="10" cy="9" r="9" fill="#bdb8aa"/><path d="M0 14v26" stroke="#8f8c80" stroke-width="3"/></g>
  </g></g><rect width="800" height="1000" fill="url(#vg)"/></svg>