<svg xmlns="http://www.w3.org/2000/svg" viewBox="0 0 800 800" width="800" height="800"><defs>
<linearGradient id="bg" x1="0" y1="0" x2="0" y2="1"><stop offset="0" stop-color="#efede6"/><stop offset="1" stop-color="#d9d6cc"/></linearGradient>
<radialGradient id="gl" cx=".5" cy=".4" r=".6"><stop offset="0" stop-color="#ffffff" stop-opacity=".9"/><stop offset="1" stop-color="#ffffff" stop-opacity="0"/></radialGradient>
<radialGradient id="vg" cx=".5" cy=".45" r=".8"><stop offset=".62" stop-color="#000" stop-opacity="0"/><stop offset="1" stop-color="#000" stop-opacity=".26"/></radialGradient>
<linearGradient id="gd" x1="0" y1="0" x2="0" y2="1"><stop offset="0" stop-color="#252523"/><stop offset="1" stop-color="#161615"/></linearGradient>
<linearGradient id="br" x1="0" y1="0" x2="0" y2="1"><stop offset="0" stop-color="#fbfaf6"/><stop offset="1" stop-color="#e2dfd5"/></linearGradient>
</defs><rect width="800" height="800" fill="url(#bg)"/><rect width="800" height="800" fill="url(#gl)"/><circle cx="3" cy="105" r="27" fill="#ffffff" opacity="0.17"/><circle cx="654" cy="195" r="46" fill="#ffffff" opacity="0.09"/><circle cx="127" cy="472" r="48" fill="#ffffff" opacity="0.11"/><circle cx="604" cy="169" r="26" fill="#ffffff" opacity="0.11"/><circle cx="504" cy="345" r="48" fill="#ffffff" opacity="0.12"/><circle cx="263" cy="614" r="19" fill="#ffffff" opacity="0.07"/><circle cx="641" cy="138" r="27" fill="#ffffff" opacity="0.19"/><circle cx="769" cy="330" r="36" fill="#ffffff" opacity="0.18"/><circle cx="725" cy="306" r="23" fill="#ffffff" opacity="0.21"/><circle cx="649" cy="438" r="19" fill="#ffffff" opacity="0.06"/><circle cx="381" cy="575" r="36" fill="#ffffff" opacity="0.06"/><circle cx="446" cy="615" r="46" fill="#ffffff" opacity="0.14"/><circle cx="360" cy="217" r="26" fill="#ffffff" opacity="0.13"/><circle cx="675" cy="228" r="34" fill="#ffffff" opacity="0.18"/><circle cx="760" cy="46" r="38" fill="#ffffff" opacity="0.14"/><circle cx="308" cy="541" r="36" fill="#ffffff" opacity="0.20"/><rect y="600" width="800" height="200" fill="#cfccc1"/><path d="M250 600V370a150 150 0 0 1 300 0V600" fill="none" stroke="#1d1d1b" stroke-width="4"/><path d="M280 600V370a120 120 0 0 1 240 0V600" fill="none" stroke="#1d1d1b" stroke-width="1.5"/><rect width="800" height="800" fill="url(#vg)"/></svg>