<svg xmlns="http://www.w3.org/2000/svg" viewBox="0 0 800 800" width="800" height="800"><defs>
<linearGradient id="bg" x1="0" y1="0" x2="0" y2="1"><stop offset="0" stop-color="#e4dacb"/><stop offset="1" stop-color="#bfb09a"/></linearGradient>
<radialGradient id="gl" cx=".5" cy=".4" r=".6"><stop offset="0" stop-color="#fff8ea" stop-opacity=".9"/><stop offset="1" stop-color="#fff8ea" stop-opacity="0"/></radialGradient>
<radialGradient id="vg" cx=".5" cy=".45" r=".8"><stop offset=".62" stop-color="#000" stop-opacity="0"/><stop offset="1" stop-color="#000" stop-opacity=".26"/></radialGradient>
<linearGradient id="gd" x1="0" y1="0" x2="0" y2="1"><stop offset="0" stop-color="#3a3d33"/><stop offset="1" stop-color="#26281f"/></linearGradient>
<linearGradient id="br" x1="0" y1="0" x2="0" y2="1"><stop offset="0" stop-color="#fbf6ea"/><stop offset="1" stop-color="#e0d6c0"/></linearGradient>
</defs><rect width="800" height="800" fill="url(#bg)"/><rect width="800" height="800" fill="url(#gl)"/><circle cx="3" cy="105" r="27" fill="#fff8ea" opacity="0.17"/><circle cx="654" cy="195" r="46" fill="#fff8ea" opacity="0.09"/><circle cx="127" cy="472" r="48" fill="#fff8ea" opacity="0.11"/><circle cx="604" cy="169" r="26" fill="#fff8ea" opacity="0.11"/><circle cx="504" cy="345" r="48" fill="#fff8ea" opacity="0.12"/><circle cx="263" cy="614" r="19" fill="#fff8ea" opacity="0.07"/><circle cx="641" cy="138" r="27" fill="#fff8ea" opacity="0.19"/><circle cx="769" cy="330" r="36" fill="#fff8ea" opacity="0.18"/><circle cx="725" cy="306" r="23" fill="#fff8ea" opacity="0.21"/><circle cx="649" cy="438" r="19" fill="#fff8ea" opacity="0.06"/><circle cx="381" cy="575" r="36" fill="#fff8ea" opacity="0.06"/><circle cx="446" cy="615" r="46" fill="#fff8ea" opacity="0.14"/><circle cx="360" cy="217" r="26" fill="#fff8ea" opacity="0.13"/><circle cx="675" cy="228" r="34" fill="#fff8ea" opacity="0.18"/><circle cx="760" cy="46" r="38" fill="#fff8ea" opacity="0.14"/><circle cx="308" cy="541" r="36" fill="#fff8ea" opacity="0.20"/><circle cx="400" cy="400" r="150" fill="#b4903a"/><circle cx="400" cy="400" r="120" fill="none" stroke="#fff6d6" stroke-width="4" opacity=".6"/><path d="M400 480V330M400 400c-40-10-50-40-50-60 30 0 50 20 50 60zM400 400c40-10 50-40 50-60-30 0-50 20-50 60zM400 440c-34-4-44-30-44-48 26 0 44 16 44 48zM400 440c34-4 44-30 44-48-26 0-44 16-44 48z" fill="#8a6a22"/><rect width="800" height="800" fill="url(#vg)"/></svg>