<svg xmlns="http://www.w3.org/2000/svg" viewBox="0 0 800 800" width="800" height="800"><defs>
<linearGradient id="bg" x1="0" y1="0" x2="0" y2="1"><stop offset="0" stop-color="#0b1030"/><stop offset="1" stop-color="#273070"/></linearGradient>
<radialGradient id="gl" cx=".5" cy=".4" r=".6"><stop offset="0" stop-color="#7f8cff" stop-opacity=".9"/><stop offset="1" stop-color="#7f8cff" stop-opacity="0"/></radialGradient>
<radialGradient id="vg" cx=".5" cy=".45" r=".8"><stop offset=".62" stop-color="#000" stop-opacity="0"/><stop offset="1" stop-color="#000" stop-opacity=".26"/></radialGradient>
<linearGradient id="gd" x1="0" y1="0" x2="0" y2="1"><stop offset="0" stop-color="#14172b"/><stop offset="1" stop-color="#232844"/></linearGradient>
<linearGradient id="br" x1="0" y1="0" x2="0" y2="1"><stop offset="0" stop-color="#f4f1ff"/><stop offset="1" stop-color="#c9c5e6"/></linearGradient>
</defs><rect width="800" height="800" fill="url(#bg)"/><rect width="800" height="800" fill="url(#gl)"/><circle cx="3" cy="105" r="27" fill="#7f8cff" opacity="0.17"/><circle cx="654" cy="195" r="46" fill="#7f8cff" opacity="0.09"/><circle cx="127" cy="472" r="48" fill="#7f8cff" opacity="0.11"/><circle cx="604" cy="169" r="26" fill="#7f8cff" opacity="0.11"/><circle cx="504" cy="345" r="48" fill="#7f8cff" opacity="0.12"/><circle cx="263" cy="614" r="19" fill="#7f8cff" opacity="0.07"/><circle cx="641" cy="138" r="27" fill="#7f8cff" opacity="0.19"/><circle cx="769" cy="330" r="36" fill="#7f8cff" opacity="0.18"/><circle cx="725" cy="306" r="23" fill="#7f8cff" opacity="0.21"/><circle cx="649" cy="438" r="19" fill="#7f8cff" opacity="0.06"/><circle cx="381" cy="575" r="36" fill="#7f8cff" opacity="0.06"/><circle cx="446" cy="615" r="46" fill="#7f8cff" opacity="0.14"/><circle cx="360" cy="217" r="26" fill="#7f8cff" opacity="0.13"/><circle cx="675" cy="228" r="34" fill="#7f8cff" opacity="0.18"/><circle cx="760" cy="46" r="38" fill="#7f8cff" opacity="0.14"/><circle cx="308" cy="541" r="36" fill="#7f8cff" opacity="0.20"/><circle cx="265" cy="152" r="2.1" fill="#fff" opacity="0.57"/><circle cx="527" cy="177" r="2.1" fill="#fff" opacity="0.60"/><circle cx="301" cy="338" r="2.1" fill="#fff" opacity="0.80"/><circle cx="290" cy="444" r="1.7" fill="#fff" opacity="0.31"/><circle cx="719" cy="512" r="2.0" fill="#fff" opacity="0.41"/><circle cx="188" cy="224" r="1.9" fill="#fff" opacity="0.74"/><circle cx="641" cy="243" r="1.0" fill="#fff" opacity="0.81"/><circle cx="83" cy="511" r="1.3" fill="#fff" opacity="0.67"/><circle cx="223" cy="395" r="0.4" fill="#fff" opacity="0.57"/><circle cx="251" cy="17" r="1.2" fill="#fff" opacity="0.42"/><circle cx="750" cy="638" r="1.4" fill="#fff" opacity="0.43"/><circle cx="139" cy="617" r="0.7" fill="#fff" opacity="0.76"/><circle cx="454" cy="231" r="1.8" fill="#fff" opacity="0.32"/><circle cx="54" cy="662" r="1.6" fill="#fff" opacity="0.86"/><circle cx="470" cy="659" r="2.1" fill="#fff" opacity="0.38"/><circle cx="182" cy="652" r="2.1" fill="#fff" opacity="0.97"/><circle cx="128" cy="349" r="1.4" fill="#fff" opacity="0.34"/><circle cx="150" cy="285" r="0.4" fill="#fff" opacity="0.60"/><circle cx="770" cy="348" r="1.6" fill="#fff" opacity="0.74"/><circle cx="706" cy="166" r="1.9" fill="#fff" opacity="0.72"/><circle cx="510" cy="664" r="0.5" fill="#fff" opacity="0.48"/><circle cx="351" cy="484" r="1.3" fill="#fff" opacity="0.79"/><circle cx="721" cy="579" r="0.7" fill="#fff" opacity="0.38"/><circle cx="486" cy="160" r="1.7" fill="#fff" opacity="0.49"/><circle cx="257" cy="128" r="0.8" fill="#fff" opacity="0.90"/><circle cx="707" cy="655" r="0.8" fill="#fff" opacity="0.47"/><circle cx="610" cy="642" r="1.6" fill="#fff" opacity="0.40"/><circle cx="223" cy="446" r="1.3" fill="#fff" opacity="0.82"/><circle cx="396" cy="160" r="1.7" fill="#fff" opacity="0.78"/><circle cx="615" cy="476" r="1.5" fill="#fff" opacity="0.67"/><circle cx="781" cy="505" r="2.1" fill="#fff" opacity="0.33"/><circle cx="322" cy="262" r="1.0" fill="#fff" opacity="0.36"/><circle cx="235" cy="129" r="0.7" fill="#fff" opacity="0.37"/><circle cx="65" cy="71" r="0.8" fill="#fff" opacity="0.60"/><circle cx="219" cy="27" r="1.5" fill="#fff" opacity="0.38"/><circle cx="3" cy="66" r="0.5" fill="#fff" opacity="0.67"/><circle cx="209" cy="311" r="0.4" fill="#fff" opacity="0.68"/><circle cx="619" cy="621" r="1.0" fill="#fff" opacity="0.60"/><circle cx="453" cy="56" r="1.9" fill="#fff" opacity="0.63"/><circle cx="145" cy="291" r="2.2" fill="#fff" opacity="0.34"/><circle cx="456" cy="412" r="0.6" fill="#fff" opacity="0.81"/><circle cx="517" cy="564" r="0.9" fill="#fff" opacity="0.71"/><circle cx="407" cy="480" r="1.9" fill="#fff" opacity="0.76"/><circle cx="264" cy="565" r="1.6" fill="#fff" opacity="0.75"/><circle cx="730" cy="657" r="0.5" fill="#fff" opacity="0.70"/><circle cx="728" cy="642" r="0.8" fill="#fff" opacity="0.99"/><circle cx="575" cy="149" r="1.5" fill="#fff" opacity="0.90"/><circle cx="24" cy="102" r="1.7" fill="#fff" opacity="0.35"/><circle cx="42" cy="545" r="1.7" fill="#fff" opacity="0.81"/><circle cx="324" cy="328" r="1.5" fill="#fff" opacity="0.32"/><circle cx="533" cy="65" r="0.5" fill="#fff" opacity="0.82"/><circle cx="482" cy="655" r="0.6" fill="#fff" opacity="0.69"/><circle cx="43" cy="171" r="1.1" fill="#fff" opacity="0.88"/><circle cx="390" cy="314" r="1.7" fill="#fff" opacity="0.50"/><circle cx="181" cy="40" r="0.5" fill="#fff" opacity="0.38"/><circle cx="265" cy="143" r="1.3" fill="#fff" opacity="0.96"/><circle cx="129" cy="615" r="0.9" fill="#fff" opacity="0.54"/><circle cx="473" cy="565" r="0.7" fill="#fff" opacity="0.36"/><circle cx="725" cy="11" r="1.8" fill="#fff" opacity="0.30"/><circle cx="282" cy="34" r="1.3" fill="#fff" opacity="0.70"/><circle cx="290" cy="598" r="0.6" fill="#fff" opacity="0.38"/><circle cx="355" cy="243" r="1.7" fill="#fff" opacity="0.79"/><circle cx="583" cy="438" r="0.5" fill="#fff" opacity="0.77"/><circle cx="167" cy="605" r="1.4" fill="#fff" opacity="0.93"/><circle cx="488" cy="604" r="0.6" fill="#fff" opacity="0.78"/><circle cx="766" cy="194" r="1.3" fill="#fff" opacity="0.49"/><circle cx="637" cy="352" r="0.8" fill="#fff" opacity="0.36"/><circle cx="59" cy="161" r="1.4" fill="#fff" opacity="0.75"/><circle cx="564" cy="469" r="1.5" fill="#fff" opacity="0.35"/><circle cx="632" cy="307" r="1.7" fill="#fff" opacity="0.55"/><circle cx="400" cy="82" r="1.8" fill="#fff" opacity="0.46"/><circle cx="510" cy="329" r="0.5" fill="#fff" opacity="0.80"/><circle cx="686" cy="236" r="1.8" fill="#fff" opacity="0.55"/><circle cx="445" cy="131" r="1.1" fill="#fff" opacity="0.37"/><circle cx="338" cy="240" r="1.1" fill="#fff" opacity="0.91"/><circle cx="534" cy="606" r="2.1" fill="#fff" opacity="0.84"/><circle cx="726" cy="78" r="0.5" fill="#fff" opacity="0.96"/><circle cx="580" cy="671" r="1.1" fill="#fff" opacity="0.46"/><circle cx="707" cy="483" r="0.5" fill="#fff" opacity="0.48"/><circle cx="179" cy="387" r="1.3" fill="#fff" opacity="0.59"/><circle cx="140" cy="130" r="34" fill="#fdf3c8"/><rect y="560" width="800" height="240" fill="#0a0d24"/><g transform="translate(260 120) scale(1.2)"><g>
  <ellipse cx="150" cy="522" rx="150" ry="14" fill="#000" opacity=".18"/>
  <rect x="62" y="296" width="30" height="224" fill="#232844"/><rect x="98" y="296" width="30" height="224" fill="#232844"/><path d="M58 112c14-8 22-10 37-10s23 2 37 10l8 150-6 38H56l-6-38z" fill="url(#gd)"/><path d="M80 104l15 40 15-40z" fill="#f4f1ff"/><path d="M95 144v6l-6 6 6 14 6-14-6-6z" fill="#e8d28a"/>
  <rect x="86" y="86" width="18" height="22" fill="#cfa085"/><circle cx="95" cy="68" r="26" fill="#cfa085"/><path d="M69 66c-4-26 14-40 28-40s32 14 26 40c-4-12-14-18-26-18s-24 6-28 18z" fill="#0d0c14"/>
  <path d="M188 168c10-8 32-8 42 0l10 70c20 90 40 200 50 282H110c8-84 26-188 46-282z" fill="url(#br)"/><path d="M188 168c10 6 32 6 42 0l4 30c-14 10-36 10-50 0z" fill="#f4f1ff"/>
  <rect x="197" y="104" width="16" height="22" fill="#e2b89c"/><circle cx="205" cy="88" r="24" fill="#e2b89c"/>
  <path d="M180 86c-6-30 12-46 26-46s34 16 26 52c-2-14-8-24-26-24s-22 10-26 18z" fill="#2a1b16"/><path d="M180 74c-4-26 10-46 28-46s34 22 30 50c-2 40 10 120 28 230l-16 60-50-40c-10-80 6-160-20-254z" fill="#f4f1ff" opacity=".55"/>
  
  <g fill="none" stroke="#3a2216" stroke-width="1.7" stroke-linecap="round"><path d="M86 66q3-3 6 0M99 66q3-3 6 0M89 78q6 5 12 0"/><path d="M196 86q3-3 6 0M208 86q3-3 6 0M199 97q6 5 12 0"/></g>
  <circle cx="84" cy="73" r="4" fill="#e58a7a" opacity=".35"/><circle cx="106" cy="73" r="4" fill="#e58a7a" opacity=".35"/><circle cx="194" cy="93" r="4" fill="#e58a7a" opacity=".35"/><circle cx="216" cy="93" r="4" fill="#e58a7a" opacity=".35"/>
  <circle cx="182" cy="100" r="3.4" fill="#e8d28a"/><circle cx="228" cy="100" r="3.4" fill="#e8d28a"/><path d="M193 118q12 14 24 0" stroke="#e8d28a" stroke-width="2.4" fill="none"/>
  
  
  <path d="M130 200c10 40 24 60 40 66" stroke="#cfa085" stroke-width="12" fill="none" stroke-linecap="round"/>
  <path d="M192 196c-14 30-22 50-26 70" stroke="#e2b89c" stroke-width="11" fill="none" stroke-linecap="round"/>
  <circle cx="168" cy="268" r="9" fill="#e2b89c"/>
  <g transform="translate(150 262)"><circle cx="0" cy="0" r="12" fill="#cfd3ff"/><circle cx="-9" cy="8" r="9" fill="#ffffff"/><circle cx="10" cy="9" r="9" fill="#cfd3ff"/><path d="M0 14v26" stroke="#4a5a8f" stroke-width="3"/></g>
  </g></g><rect width="800" height="800" fill="url(#vg)"/></svg>