<svg xmlns="http://www.w3.org/2000/svg" viewBox="0 0 800 800" width="800" height="800"><defs>
<linearGradient id="bg" x1="0" y1="0" x2="0" y2="1"><stop offset="0" stop-color="#f9d89a"/><stop offset="1" stop-color="#b5421f"/></linearGradient>
<radialGradient id="gl" cx=".5" cy=".4" r=".6"><stop offset="0" stop-color="#fff1c4" stop-opacity=".9"/><stop offset="1" stop-color="#fff1c4" stop-opacity="0"/></radialGradient>
<radialGradient id="vg" cx=".5" cy=".45" r=".8"><stop offset=".62" stop-color="#000" stop-opacity="0"/><stop offset="1" stop-color="#000" stop-opacity=".26"/></radialGradient>
<linearGradient id="gd" x1="0" y1="0" x2="0" y2="1"><stop offset="0" stop-color="#f6e4b4"/><stop offset="1" stop-color="#e0c079"/></linearGradient>
<linearGradient id="br" x1="0" y1="0" x2="0" y2="1"><stop offset="0" stop-color="#b3122f"/><stop offset="1" stop-color="#7e0a20"/></linearGradient>
</defs><rect width="800" height="800" fill="url(#bg)"/><rect width="800" height="800" fill="url(#gl)"/><circle cx="3" cy="105" r="27" fill="#fff1c4" opacity="0.17"/><circle cx="654" cy="195" r="46" fill="#fff1c4" opacity="0.09"/><circle cx="127" cy="472" r="48" fill="#fff1c4" opacity="0.11"/><circle cx="604" cy="169" r="26" fill="#fff1c4" opacity="0.11"/><circle cx="504" cy="345" r="48" fill="#fff1c4" opacity="0.12"/><circle cx="263" cy="614" r="19" fill="#fff1c4" opacity="0.07"/><circle cx="641" cy="138" r="27" fill="#fff1c4" opacity="0.19"/><circle cx="769" cy="330" r="36" fill="#fff1c4" opacity="0.18"/><circle cx="725" cy="306" r="23" fill="#fff1c4" opacity="0.21"/><circle cx="649" cy="438" r="19" fill="#fff1c4" opacity="0.06"/><circle cx="381" cy="575" r="36" fill="#fff1c4" opacity="0.06"/><circle cx="446" cy="615" r="46" fill="#fff1c4" opacity="0.14"/><circle cx="360" cy="217" r="26" fill="#fff1c4" opacity="0.13"/><circle cx="675" cy="228" r="34" fill="#fff1c4" opacity="0.18"/><circle cx="760" cy="46" r="38" fill="#fff1c4" opacity="0.14"/><circle cx="308" cy="541" r="36" fill="#fff1c4" opacity="0.20"/><rect y="560" width="800" height="240" fill="#2f7f7b"/><g transform="translate(260 120) scale(1.2)"><g>
  <ellipse cx="150" cy="522" rx="150" ry="14" fill="#000" opacity=".18"/>
  <rect x="64" y="396" width="26" height="124" fill="#e0c079"/><rect x="100" y="396" width="26" height="124" fill="#e0c079"/><path d="M58 112c14-8 22-10 37-10s23 2 37 10l8 150-10 140H60L50 262z" fill="url(#gd)"/><path d="M95 102v300" stroke="#d99a2b" stroke-width="2"/><circle cx="95" cy="130" r="3" fill="#d99a2b"/><circle cx="95" cy="160" r="3" fill="#d99a2b"/><circle cx="95" cy="190" r="3" fill="#d99a2b"/><circle cx="95" cy="220" r="3" fill="#d99a2b"/><circle cx="95" cy="250" r="3" fill="#d99a2b"/><path d="M72 106l23 22 23-22" fill="none" stroke="#d99a2b" stroke-width="3"/>
  <rect x="86" y="86" width="18" height="22" fill="#c58760"/><circle cx="95" cy="68" r="26" fill="#c58760"/><ellipse cx="95" cy="52" rx="30" ry="22" fill="#e07b1a"/><path d="M66 56c10-8 48-8 58 0v8H66z" fill="#d99a2b"/><circle cx="95" cy="36" r="5" fill="#d99a2b"/>
  <path d="M186 168c10-8 34-8 44 0l12 70 30 282H144l30-282z" fill="url(#br)"/><path d="M144 520l30-90h72l30 90z" fill="#d99a2b" opacity=".35"/><path d="M186 168l20 40 24-40" fill="#d99a2b" opacity=".5"/>
  <rect x="197" y="104" width="16" height="22" fill="#d89b72"/><circle cx="205" cy="88" r="24" fill="#d89b72"/>
  <path d="M180 86c-6-30 12-46 26-46s34 16 26 52c-2-14-8-24-26-24s-22 10-26 18z" fill="#24130c"/><path d="M180 74c-4-26 10-46 28-46s34 22 30 50c-2 40 10 120 28 230l-16 60-50-40c-10-80 6-160-20-254z" fill="#b3122f" opacity=".55"/>
  
  <g fill="none" stroke="#3a2216" stroke-width="1.7" stroke-linecap="round"><path d="M86 66q3-3 6 0M99 66q3-3 6 0M89 78q6 5 12 0"/><path d="M196 86q3-3 6 0M208 86q3-3 6 0M199 97q6 5 12 0"/></g>
  <circle cx="84" cy="73" r="4" fill="#e58a7a" opacity=".35"/><circle cx="106" cy="73" r="4" fill="#e58a7a" opacity=".35"/><circle cx="194" cy="93" r="4" fill="#e58a7a" opacity=".35"/><circle cx="216" cy="93" r="4" fill="#e58a7a" opacity=".35"/>
  <circle cx="182" cy="100" r="3.4" fill="#d99a2b"/><circle cx="228" cy="100" r="3.4" fill="#d99a2b"/><path d="M193 118q12 14 24 0" stroke="#d99a2b" stroke-width="2.4" fill="none"/>
  <circle cx="205" cy="78" r="2.6" fill="#c0182f"/>
  <path d="M72 128Q150 330 222 128" stroke="#e85d8a" stroke-width="9" fill="none" stroke-dasharray="1 9" stroke-linecap="round"/><path d="M72 128Q150 330 222 128" stroke="#ffd1de" stroke-width="3" fill="none" opacity=".8"/>
  <path d="M130 200c10 40 24 60 40 66" stroke="#c58760" stroke-width="12" fill="none" stroke-linecap="round"/>
  <path d="M192 196c-14 30-22 50-26 70" stroke="#d89b72" stroke-width="11" fill="none" stroke-linecap="round"/>
  <circle cx="168" cy="268" r="9" fill="#d89b72"/>
  <g transform="translate(150 262)"><circle cx="0" cy="0" r="12" fill="#e85d8a"/><circle cx="-9" cy="8" r="9" fill="#ffd1de"/><circle cx="10" cy="9" r="9" fill="#e85d8a"/><path d="M0 14v26" stroke="#3c7a46" stroke-width="3"/></g>
  </g></g><rect width="800" height="800" fill="url(#vg)"/></svg>